<mxfile host="app.diagrams.net" modified="2020-09-06T02:54:17.180Z" agent="5.0 (Windows NT 10.0; Win64; x64) AppleWebKit/537.36 (KHTML, like Gecko) Chrome/85.0.4183.83 Safari/537.36" etag="Lx_aidYTfjtR5p1-w5Aq" version="13.6.6" type="github" pages="7">
  <diagram id="lMN2-vd5-Ib2ClQREuhf" name="Flowchart">
    <mxGraphModel dx="1721" dy="724" grid="1" gridSize="10" guides="1" tooltips="1" connect="1" arrows="1" fold="1" page="1" pageScale="1" pageWidth="850" pageHeight="1100" math="0" shadow="0">
      <root>
        <mxCell id="0" />
        <mxCell id="1" parent="0" />
        <mxCell id="AAJcexZdFbtAp2yBQk_v-5" style="edgeStyle=orthogonalEdgeStyle;rounded=0;orthogonalLoop=1;jettySize=auto;html=1;exitX=0.5;exitY=1;exitDx=0;exitDy=0;entryX=0.5;entryY=0;entryDx=0;entryDy=0;" parent="1" source="AAJcexZdFbtAp2yBQk_v-1" target="fGmzBDPMWgFh_LHtWJac-23" edge="1">
          <mxGeometry relative="1" as="geometry">
            <mxPoint x="550" y="400" as="targetPoint" />
          </mxGeometry>
        </mxCell>
        <mxCell id="AAJcexZdFbtAp2yBQk_v-1" value="Login" style="rounded=1;whiteSpace=wrap;html=1;" parent="1" vertex="1">
          <mxGeometry x="300" y="40" width="120" height="60" as="geometry" />
        </mxCell>
        <mxCell id="AAJcexZdFbtAp2yBQk_v-14" style="edgeStyle=orthogonalEdgeStyle;rounded=0;orthogonalLoop=1;jettySize=auto;html=1;exitX=1;exitY=0.5;exitDx=0;exitDy=0;entryX=0;entryY=0.5;entryDx=0;entryDy=0;" parent="1" source="AAJcexZdFbtAp2yBQk_v-12" target="AAJcexZdFbtAp2yBQk_v-23" edge="1">
          <mxGeometry relative="1" as="geometry">
            <mxPoint x="310" y="320" as="targetPoint" />
          </mxGeometry>
        </mxCell>
        <mxCell id="AAJcexZdFbtAp2yBQk_v-21" value="Yes" style="edgeLabel;html=1;align=center;verticalAlign=middle;resizable=0;points=[];" parent="AAJcexZdFbtAp2yBQk_v-14" vertex="1" connectable="0">
          <mxGeometry x="-0.225" y="1" relative="1" as="geometry">
            <mxPoint y="-1" as="offset" />
          </mxGeometry>
        </mxCell>
        <mxCell id="fGmzBDPMWgFh_LHtWJac-1" style="edgeStyle=orthogonalEdgeStyle;rounded=0;orthogonalLoop=1;jettySize=auto;html=1;exitX=0;exitY=0.5;exitDx=0;exitDy=0;entryX=1;entryY=0.5;entryDx=0;entryDy=0;" parent="1" source="AAJcexZdFbtAp2yBQk_v-12" target="fGmzBDPMWgFh_LHtWJac-3" edge="1">
          <mxGeometry relative="1" as="geometry">
            <mxPoint x="490" y="320" as="targetPoint" />
          </mxGeometry>
        </mxCell>
        <mxCell id="fGmzBDPMWgFh_LHtWJac-2" value="No" style="edgeLabel;html=1;align=center;verticalAlign=middle;resizable=0;points=[];" parent="fGmzBDPMWgFh_LHtWJac-1" vertex="1" connectable="0">
          <mxGeometry x="-0.3417" relative="1" as="geometry">
            <mxPoint x="-7" as="offset" />
          </mxGeometry>
        </mxCell>
        <mxCell id="AAJcexZdFbtAp2yBQk_v-12" value="Check In?" style="rhombus;whiteSpace=wrap;html=1;rounded=0;glass=0;" parent="1" vertex="1">
          <mxGeometry x="320" y="280" width="80" height="80" as="geometry" />
        </mxCell>
        <mxCell id="AAJcexZdFbtAp2yBQk_v-26" style="edgeStyle=orthogonalEdgeStyle;rounded=0;orthogonalLoop=1;jettySize=auto;html=1;exitX=0.5;exitY=1;exitDx=0;exitDy=0;" parent="1" source="AAJcexZdFbtAp2yBQk_v-23" target="AAJcexZdFbtAp2yBQk_v-25" edge="1">
          <mxGeometry relative="1" as="geometry">
            <mxPoint x="270" y="380" as="targetPoint" />
          </mxGeometry>
        </mxCell>
        <mxCell id="AAJcexZdFbtAp2yBQk_v-23" value="Check-in" style="rounded=1;whiteSpace=wrap;html=1;glass=0;" parent="1" vertex="1">
          <mxGeometry x="470" y="290" width="120" height="60" as="geometry" />
        </mxCell>
        <mxCell id="AAJcexZdFbtAp2yBQk_v-27" style="edgeStyle=orthogonalEdgeStyle;rounded=0;orthogonalLoop=1;jettySize=auto;html=1;entryX=0.5;entryY=0;entryDx=0;entryDy=0;" parent="1" source="AAJcexZdFbtAp2yBQk_v-49" target="AAJcexZdFbtAp2yBQk_v-34" edge="1">
          <mxGeometry relative="1" as="geometry">
            <mxPoint x="820" y="420" as="targetPoint" />
          </mxGeometry>
        </mxCell>
        <mxCell id="AAJcexZdFbtAp2yBQk_v-28" value="Yes" style="edgeLabel;html=1;align=center;verticalAlign=middle;resizable=0;points=[];" parent="AAJcexZdFbtAp2yBQk_v-27" vertex="1" connectable="0">
          <mxGeometry x="-0.2889" y="2" relative="1" as="geometry">
            <mxPoint x="-94" y="2" as="offset" />
          </mxGeometry>
        </mxCell>
        <mxCell id="AAJcexZdFbtAp2yBQk_v-25" value="RFID?" style="rhombus;whiteSpace=wrap;html=1;rounded=0;glass=0;" parent="1" vertex="1">
          <mxGeometry x="490" y="380" width="80" height="80" as="geometry" />
        </mxCell>
        <mxCell id="fGmzBDPMWgFh_LHtWJac-31" style="edgeStyle=orthogonalEdgeStyle;rounded=0;orthogonalLoop=1;jettySize=auto;html=1;exitX=1;exitY=0.5;exitDx=0;exitDy=0;entryX=1;entryY=0.5;entryDx=0;entryDy=0;" parent="1" source="AAJcexZdFbtAp2yBQk_v-34" target="AAJcexZdFbtAp2yBQk_v-23" edge="1">
          <mxGeometry relative="1" as="geometry" />
        </mxCell>
        <mxCell id="DpaS2r_Mxwp1OxQhThRd-2" value="Done" style="edgeLabel;html=1;align=center;verticalAlign=middle;resizable=0;points=[];" vertex="1" connectable="0" parent="fGmzBDPMWgFh_LHtWJac-31">
          <mxGeometry x="-0.8405" y="2" relative="1" as="geometry">
            <mxPoint as="offset" />
          </mxGeometry>
        </mxCell>
        <mxCell id="AAJcexZdFbtAp2yBQk_v-34" value="Maker" style="rounded=1;whiteSpace=wrap;html=1;glass=0;" parent="1" vertex="1">
          <mxGeometry x="930" y="530" width="120" height="60" as="geometry" />
        </mxCell>
        <mxCell id="AAJcexZdFbtAp2yBQk_v-37" value="Manual WFU ID" style="rounded=1;whiteSpace=wrap;html=1;glass=0;" parent="1" vertex="1">
          <mxGeometry x="560" y="530" width="120" height="60" as="geometry" />
        </mxCell>
        <mxCell id="AAJcexZdFbtAp2yBQk_v-48" style="edgeStyle=orthogonalEdgeStyle;rounded=0;orthogonalLoop=1;jettySize=auto;html=1;entryX=0.5;entryY=1;entryDx=0;entryDy=0;exitX=0.5;exitY=0;exitDx=0;exitDy=0;" parent="1" source="AAJcexZdFbtAp2yBQk_v-46" target="AAJcexZdFbtAp2yBQk_v-34" edge="1">
          <mxGeometry relative="1" as="geometry">
            <mxPoint x="1180" y="500" as="sourcePoint" />
          </mxGeometry>
        </mxCell>
        <mxCell id="AAJcexZdFbtAp2yBQk_v-46" value="New Maker" style="rounded=1;whiteSpace=wrap;html=1;glass=0;arcSize=21;" parent="1" vertex="1">
          <mxGeometry x="930" y="630" width="120" height="60" as="geometry" />
        </mxCell>
        <mxCell id="AAJcexZdFbtAp2yBQk_v-47" style="edgeStyle=none;rounded=0;orthogonalLoop=1;jettySize=auto;html=1;exitX=1;exitY=1;exitDx=0;exitDy=0;" parent="1" source="AAJcexZdFbtAp2yBQk_v-12" target="AAJcexZdFbtAp2yBQk_v-12" edge="1">
          <mxGeometry relative="1" as="geometry" />
        </mxCell>
        <mxCell id="AAJcexZdFbtAp2yBQk_v-49" value="Valid?" style="rhombus;whiteSpace=wrap;html=1;rounded=0;glass=0;" parent="1" vertex="1">
          <mxGeometry x="670" y="380" width="80" height="80" as="geometry" />
        </mxCell>
        <mxCell id="AAJcexZdFbtAp2yBQk_v-50" style="edgeStyle=orthogonalEdgeStyle;rounded=0;orthogonalLoop=1;jettySize=auto;html=1;entryX=0;entryY=0.5;entryDx=0;entryDy=0;exitX=1;exitY=0.5;exitDx=0;exitDy=0;" parent="1" source="AAJcexZdFbtAp2yBQk_v-25" target="AAJcexZdFbtAp2yBQk_v-49" edge="1">
          <mxGeometry relative="1" as="geometry">
            <mxPoint x="670" y="470" as="targetPoint" />
            <mxPoint x="560" y="430" as="sourcePoint" />
          </mxGeometry>
        </mxCell>
        <mxCell id="AAJcexZdFbtAp2yBQk_v-51" value="Yes" style="edgeLabel;html=1;align=center;verticalAlign=middle;resizable=0;points=[];" parent="AAJcexZdFbtAp2yBQk_v-50" vertex="1" connectable="0">
          <mxGeometry x="-0.2889" y="2" relative="1" as="geometry">
            <mxPoint x="8" y="2" as="offset" />
          </mxGeometry>
        </mxCell>
        <mxCell id="AAJcexZdFbtAp2yBQk_v-52" style="edgeStyle=orthogonalEdgeStyle;rounded=0;orthogonalLoop=1;jettySize=auto;html=1;entryX=0.5;entryY=0;entryDx=0;entryDy=0;exitX=0.5;exitY=1;exitDx=0;exitDy=0;" parent="1" source="AAJcexZdFbtAp2yBQk_v-25" target="AAJcexZdFbtAp2yBQk_v-37" edge="1">
          <mxGeometry relative="1" as="geometry">
            <mxPoint x="530" y="530" as="targetPoint" />
            <mxPoint x="530" y="500" as="sourcePoint" />
          </mxGeometry>
        </mxCell>
        <mxCell id="AAJcexZdFbtAp2yBQk_v-53" value="No" style="edgeLabel;html=1;align=center;verticalAlign=middle;resizable=0;points=[];" parent="AAJcexZdFbtAp2yBQk_v-52" vertex="1" connectable="0">
          <mxGeometry x="-0.3196" relative="1" as="geometry">
            <mxPoint x="-19" y="-15" as="offset" />
          </mxGeometry>
        </mxCell>
        <mxCell id="AAJcexZdFbtAp2yBQk_v-54" style="edgeStyle=orthogonalEdgeStyle;rounded=0;orthogonalLoop=1;jettySize=auto;html=1;exitX=0.5;exitY=1;exitDx=0;exitDy=0;entryX=0.5;entryY=0;entryDx=0;entryDy=0;" parent="1" source="AAJcexZdFbtAp2yBQk_v-49" target="AAJcexZdFbtAp2yBQk_v-37" edge="1">
          <mxGeometry relative="1" as="geometry">
            <mxPoint x="530" y="530" as="targetPoint" />
            <mxPoint x="540" y="470" as="sourcePoint" />
          </mxGeometry>
        </mxCell>
        <mxCell id="AAJcexZdFbtAp2yBQk_v-55" value="No" style="edgeLabel;html=1;align=center;verticalAlign=middle;resizable=0;points=[];" parent="AAJcexZdFbtAp2yBQk_v-54" vertex="1" connectable="0">
          <mxGeometry x="-0.3196" relative="1" as="geometry">
            <mxPoint x="16" y="-15" as="offset" />
          </mxGeometry>
        </mxCell>
        <mxCell id="AAJcexZdFbtAp2yBQk_v-59" style="edgeStyle=orthogonalEdgeStyle;rounded=0;orthogonalLoop=1;jettySize=auto;html=1;exitX=0.5;exitY=1;exitDx=0;exitDy=0;entryX=0;entryY=0.5;entryDx=0;entryDy=0;" parent="1" source="AAJcexZdFbtAp2yBQk_v-57" target="AAJcexZdFbtAp2yBQk_v-46" edge="1">
          <mxGeometry relative="1" as="geometry">
            <mxPoint x="980" y="530" as="targetPoint" />
          </mxGeometry>
        </mxCell>
        <mxCell id="AAJcexZdFbtAp2yBQk_v-62" value="No" style="edgeLabel;html=1;align=center;verticalAlign=middle;resizable=0;points=[];" parent="AAJcexZdFbtAp2yBQk_v-59" vertex="1" connectable="0">
          <mxGeometry x="-0.3185" y="3" relative="1" as="geometry">
            <mxPoint x="-8" y="-37" as="offset" />
          </mxGeometry>
        </mxCell>
        <mxCell id="AAJcexZdFbtAp2yBQk_v-60" style="edgeStyle=orthogonalEdgeStyle;rounded=0;orthogonalLoop=1;jettySize=auto;html=1;exitX=1;exitY=0.5;exitDx=0;exitDy=0;entryX=0;entryY=0.5;entryDx=0;entryDy=0;" parent="1" source="AAJcexZdFbtAp2yBQk_v-57" target="AAJcexZdFbtAp2yBQk_v-34" edge="1">
          <mxGeometry relative="1" as="geometry">
            <mxPoint x="830" y="559.5" as="sourcePoint" />
            <mxPoint x="930" y="559.5" as="targetPoint" />
          </mxGeometry>
        </mxCell>
        <mxCell id="AAJcexZdFbtAp2yBQk_v-61" value="Yes" style="edgeLabel;html=1;align=center;verticalAlign=middle;resizable=0;points=[];" parent="AAJcexZdFbtAp2yBQk_v-60" vertex="1" connectable="0">
          <mxGeometry x="-0.1886" y="-1" relative="1" as="geometry">
            <mxPoint y="-1" as="offset" />
          </mxGeometry>
        </mxCell>
        <mxCell id="AAJcexZdFbtAp2yBQk_v-57" value="Valid?" style="rhombus;whiteSpace=wrap;html=1;" parent="1" vertex="1">
          <mxGeometry x="750" y="520" width="80" height="80" as="geometry" />
        </mxCell>
        <mxCell id="AAJcexZdFbtAp2yBQk_v-58" style="edgeStyle=orthogonalEdgeStyle;rounded=0;orthogonalLoop=1;jettySize=auto;html=1;exitX=1;exitY=0.5;exitDx=0;exitDy=0;" parent="1" source="AAJcexZdFbtAp2yBQk_v-37" target="AAJcexZdFbtAp2yBQk_v-57" edge="1">
          <mxGeometry relative="1" as="geometry">
            <mxPoint x="790" y="560" as="targetPoint" />
            <mxPoint x="680" y="560" as="sourcePoint" />
          </mxGeometry>
        </mxCell>
        <mxCell id="fGmzBDPMWgFh_LHtWJac-6" style="edgeStyle=orthogonalEdgeStyle;rounded=0;orthogonalLoop=1;jettySize=auto;html=1;exitX=0.5;exitY=1;exitDx=0;exitDy=0;entryX=0.5;entryY=0;entryDx=0;entryDy=0;" parent="1" source="fGmzBDPMWgFh_LHtWJac-3" target="fGmzBDPMWgFh_LHtWJac-4" edge="1">
          <mxGeometry relative="1" as="geometry" />
        </mxCell>
        <mxCell id="fGmzBDPMWgFh_LHtWJac-3" value="Check-out" style="rounded=1;whiteSpace=wrap;html=1;glass=0;" parent="1" vertex="1">
          <mxGeometry x="130" y="290" width="120" height="60" as="geometry" />
        </mxCell>
        <mxCell id="fGmzBDPMWgFh_LHtWJac-8" style="edgeStyle=orthogonalEdgeStyle;rounded=0;orthogonalLoop=1;jettySize=auto;html=1;exitX=0;exitY=0.5;exitDx=0;exitDy=0;entryX=0;entryY=0.5;entryDx=0;entryDy=0;" parent="1" source="fGmzBDPMWgFh_LHtWJac-4" target="fGmzBDPMWgFh_LHtWJac-3" edge="1">
          <mxGeometry relative="1" as="geometry">
            <mxPoint x="50" y="418" as="targetPoint" />
            <Array as="points">
              <mxPoint x="50" y="418" />
              <mxPoint x="50" y="320" />
            </Array>
          </mxGeometry>
        </mxCell>
        <mxCell id="fGmzBDPMWgFh_LHtWJac-9" value="Yes" style="edgeLabel;html=1;align=center;verticalAlign=middle;resizable=0;points=[];" parent="fGmzBDPMWgFh_LHtWJac-8" vertex="1" connectable="0">
          <mxGeometry x="-0.2681" y="-2" relative="1" as="geometry">
            <mxPoint x="78" as="offset" />
          </mxGeometry>
        </mxCell>
        <mxCell id="fGmzBDPMWgFh_LHtWJac-15" style="edgeStyle=orthogonalEdgeStyle;rounded=0;orthogonalLoop=1;jettySize=auto;html=1;" parent="1" source="fGmzBDPMWgFh_LHtWJac-4" target="fGmzBDPMWgFh_LHtWJac-19" edge="1">
          <mxGeometry relative="1" as="geometry">
            <mxPoint x="190" y="600" as="targetPoint" />
          </mxGeometry>
        </mxCell>
        <mxCell id="fGmzBDPMWgFh_LHtWJac-16" value="No" style="edgeLabel;html=1;align=center;verticalAlign=middle;resizable=0;points=[];" parent="fGmzBDPMWgFh_LHtWJac-15" vertex="1" connectable="0">
          <mxGeometry x="-0.2105" y="-1" relative="1" as="geometry">
            <mxPoint as="offset" />
          </mxGeometry>
        </mxCell>
        <mxCell id="fGmzBDPMWgFh_LHtWJac-4" value="RFID?" style="rhombus;whiteSpace=wrap;html=1;rounded=0;" parent="1" vertex="1">
          <mxGeometry x="150" y="380" width="80" height="80" as="geometry" />
        </mxCell>
        <mxCell id="fGmzBDPMWgFh_LHtWJac-20" style="edgeStyle=orthogonalEdgeStyle;rounded=0;orthogonalLoop=1;jettySize=auto;html=1;exitX=0;exitY=0.5;exitDx=0;exitDy=0;entryX=0;entryY=0.5;entryDx=0;entryDy=0;" parent="1" source="fGmzBDPMWgFh_LHtWJac-19" target="fGmzBDPMWgFh_LHtWJac-3" edge="1">
          <mxGeometry relative="1" as="geometry">
            <Array as="points">
              <mxPoint x="50" y="558" />
              <mxPoint x="50" y="320" />
            </Array>
          </mxGeometry>
        </mxCell>
        <mxCell id="DpaS2r_Mxwp1OxQhThRd-1" value="Done" style="edgeLabel;html=1;align=center;verticalAlign=middle;resizable=0;points=[];" vertex="1" connectable="0" parent="fGmzBDPMWgFh_LHtWJac-20">
          <mxGeometry x="-0.7456" y="3" relative="1" as="geometry">
            <mxPoint x="21" y="-3" as="offset" />
          </mxGeometry>
        </mxCell>
        <mxCell id="fGmzBDPMWgFh_LHtWJac-19" value="Manual WFU ID" style="rounded=1;whiteSpace=wrap;html=1;" parent="1" vertex="1">
          <mxGeometry x="130" y="528" width="120" height="60" as="geometry" />
        </mxCell>
        <mxCell id="fGmzBDPMWgFh_LHtWJac-24" value="No" style="edgeStyle=orthogonalEdgeStyle;rounded=0;orthogonalLoop=1;jettySize=auto;html=1;exitX=0.5;exitY=1;exitDx=0;exitDy=0;entryX=0.5;entryY=0;entryDx=0;entryDy=0;" parent="1" source="fGmzBDPMWgFh_LHtWJac-23" target="AAJcexZdFbtAp2yBQk_v-12" edge="1">
          <mxGeometry relative="1" as="geometry" />
        </mxCell>
        <mxCell id="fGmzBDPMWgFh_LHtWJac-25" value="Yes" style="edgeStyle=orthogonalEdgeStyle;rounded=0;orthogonalLoop=1;jettySize=auto;html=1;exitX=1;exitY=0.5;exitDx=0;exitDy=0;" parent="1" source="fGmzBDPMWgFh_LHtWJac-23" edge="1">
          <mxGeometry relative="1" as="geometry">
            <mxPoint x="510" y="190" as="targetPoint" />
          </mxGeometry>
        </mxCell>
        <mxCell id="fGmzBDPMWgFh_LHtWJac-23" value="Admin?" style="rhombus;whiteSpace=wrap;html=1;rounded=0;" parent="1" vertex="1">
          <mxGeometry x="320" y="150" width="80" height="80" as="geometry" />
        </mxCell>
      </root>
    </mxGraphModel>
  </diagram>
  <diagram id="0oITXdTxRmmOyyb9l8wz" name="Login WF">
    <mxGraphModel dx="1205" dy="507" grid="1" gridSize="10" guides="1" tooltips="1" connect="1" arrows="1" fold="1" page="1" pageScale="1" pageWidth="850" pageHeight="1100" math="0" shadow="0">
      <root>
        <mxCell id="AK64d1tOIyXhoQuXvN_1-0" />
        <mxCell id="AK64d1tOIyXhoQuXvN_1-1" parent="AK64d1tOIyXhoQuXvN_1-0" />
        <mxCell id="fi9YSibQRTbkUyovUJU8-0" value="" style="rounded=0;whiteSpace=wrap;html=1;" vertex="1" parent="AK64d1tOIyXhoQuXvN_1-1">
          <mxGeometry x="170" y="40" width="500" height="420" as="geometry" />
        </mxCell>
        <mxCell id="fi9YSibQRTbkUyovUJU8-1" value="Wakerspace Logo" style="ellipse;whiteSpace=wrap;html=1;" vertex="1" parent="AK64d1tOIyXhoQuXvN_1-1">
          <mxGeometry x="360" y="70" width="120" height="80" as="geometry" />
        </mxCell>
        <mxCell id="wBVEvqSLMo8ajELDoti0-6" value="" style="group" vertex="1" connectable="0" parent="AK64d1tOIyXhoQuXvN_1-1">
          <mxGeometry x="320" y="210" width="210" height="150" as="geometry" />
        </mxCell>
        <mxCell id="wBVEvqSLMo8ajELDoti0-0" value="" style="rounded=0;whiteSpace=wrap;html=1;" vertex="1" parent="wBVEvqSLMo8ajELDoti0-6">
          <mxGeometry y="-20" width="210" height="150" as="geometry" />
        </mxCell>
        <mxCell id="wBVEvqSLMo8ajELDoti0-1" value="" style="rounded=0;whiteSpace=wrap;html=1;" vertex="1" parent="wBVEvqSLMo8ajELDoti0-6">
          <mxGeometry x="80" y="40" width="120" height="20" as="geometry" />
        </mxCell>
        <mxCell id="wBVEvqSLMo8ajELDoti0-2" value="" style="rounded=0;whiteSpace=wrap;html=1;" vertex="1" parent="wBVEvqSLMo8ajELDoti0-6">
          <mxGeometry x="80" y="80" width="120" height="20" as="geometry" />
        </mxCell>
        <mxCell id="wBVEvqSLMo8ajELDoti0-3" value="username:" style="text;html=1;strokeColor=none;fillColor=none;align=center;verticalAlign=middle;whiteSpace=wrap;rounded=0;" vertex="1" parent="wBVEvqSLMo8ajELDoti0-6">
          <mxGeometry x="20" y="40" width="40" height="20" as="geometry" />
        </mxCell>
        <mxCell id="wBVEvqSLMo8ajELDoti0-4" value="password:" style="text;html=1;strokeColor=none;fillColor=none;align=center;verticalAlign=middle;whiteSpace=wrap;rounded=0;" vertex="1" parent="wBVEvqSLMo8ajELDoti0-6">
          <mxGeometry x="20" y="80" width="40" height="20" as="geometry" />
        </mxCell>
      </root>
    </mxGraphModel>
  </diagram>
  <diagram id="94kBz_cpCaOas604V2MI" name="Homepage WF">
    <mxGraphModel dx="1205" dy="507" grid="1" gridSize="10" guides="1" tooltips="1" connect="1" arrows="1" fold="1" page="1" pageScale="1" pageWidth="850" pageHeight="1100" math="0" shadow="0">
      <root>
        <mxCell id="H57sOSsdCBz1dgZKg69w-0" />
        <mxCell id="H57sOSsdCBz1dgZKg69w-1" parent="H57sOSsdCBz1dgZKg69w-0" />
        <mxCell id="8kqDwWPuPlE8fcepd3wz-0" value="" style="rounded=0;whiteSpace=wrap;html=1;" vertex="1" parent="H57sOSsdCBz1dgZKg69w-1">
          <mxGeometry x="170" y="40" width="500" height="420" as="geometry" />
        </mxCell>
        <mxCell id="qupBsO7wFaYkeY3Jmkkm-4" value="" style="ellipse;shape=cloud;whiteSpace=wrap;html=1;" vertex="1" parent="H57sOSsdCBz1dgZKg69w-1">
          <mxGeometry x="482" y="44.33" width="100" height="66.67" as="geometry" />
        </mxCell>
        <mxCell id="8kqDwWPuPlE8fcepd3wz-1" value="Wakerspace Logo" style="ellipse;whiteSpace=wrap;html=1;" vertex="1" parent="H57sOSsdCBz1dgZKg69w-1">
          <mxGeometry x="360" y="70" width="120" height="80" as="geometry" />
        </mxCell>
        <mxCell id="qupBsO7wFaYkeY3Jmkkm-0" value="Check-in" style="rounded=1;whiteSpace=wrap;html=1;" vertex="1" parent="H57sOSsdCBz1dgZKg69w-1">
          <mxGeometry x="360" y="200" width="120" height="40" as="geometry" />
        </mxCell>
        <mxCell id="qupBsO7wFaYkeY3Jmkkm-1" value="Check-out" style="rounded=1;whiteSpace=wrap;html=1;" vertex="1" parent="H57sOSsdCBz1dgZKg69w-1">
          <mxGeometry x="360" y="250" width="120" height="40" as="geometry" />
        </mxCell>
        <mxCell id="qupBsO7wFaYkeY3Jmkkm-2" value="Logout" style="rounded=1;whiteSpace=wrap;html=1;" vertex="1" parent="H57sOSsdCBz1dgZKg69w-1">
          <mxGeometry x="580" y="60" width="70" height="40" as="geometry" />
        </mxCell>
        <mxCell id="qupBsO7wFaYkeY3Jmkkm-3" value="Admin" style="rounded=1;whiteSpace=wrap;html=1;" vertex="1" parent="H57sOSsdCBz1dgZKg69w-1">
          <mxGeometry x="500" y="60" width="70" height="40" as="geometry" />
        </mxCell>
      </root>
    </mxGraphModel>
  </diagram>
  <diagram id="HLVzCJTHaDInhaV6eAX7" name="Scan WF">
    <mxGraphModel dx="1205" dy="507" grid="1" gridSize="10" guides="1" tooltips="1" connect="1" arrows="1" fold="1" page="1" pageScale="1" pageWidth="850" pageHeight="1100" math="0" shadow="0">
      <root>
        <mxCell id="mSpAzW-4YonSzBNAbAfj-0" />
        <mxCell id="mSpAzW-4YonSzBNAbAfj-1" parent="mSpAzW-4YonSzBNAbAfj-0" />
        <mxCell id="mSpAzW-4YonSzBNAbAfj-2" value="" style="rounded=0;whiteSpace=wrap;html=1;" vertex="1" parent="mSpAzW-4YonSzBNAbAfj-1">
          <mxGeometry x="170" y="40" width="500" height="420" as="geometry" />
        </mxCell>
        <mxCell id="mSpAzW-4YonSzBNAbAfj-3" value="Wakerspace Logo" style="ellipse;whiteSpace=wrap;html=1;" vertex="1" parent="mSpAzW-4YonSzBNAbAfj-1">
          <mxGeometry x="360" y="70" width="120" height="80" as="geometry" />
        </mxCell>
        <mxCell id="mSpAzW-4YonSzBNAbAfj-4" value="" style="rounded=0;whiteSpace=wrap;html=1;" vertex="1" parent="mSpAzW-4YonSzBNAbAfj-1">
          <mxGeometry x="330" y="170" width="180" height="220" as="geometry" />
        </mxCell>
        <mxCell id="mSpAzW-4YonSzBNAbAfj-5" value="" style="rounded=0;whiteSpace=wrap;html=1;" vertex="1" parent="mSpAzW-4YonSzBNAbAfj-1">
          <mxGeometry x="360" y="250" width="120" height="70" as="geometry" />
        </mxCell>
        <mxCell id="mSpAzW-4YonSzBNAbAfj-6" value="" style="rounded=1;whiteSpace=wrap;html=1;" vertex="1" parent="mSpAzW-4YonSzBNAbAfj-1">
          <mxGeometry x="450" y="260" width="20" height="30" as="geometry" />
        </mxCell>
        <mxCell id="mSpAzW-4YonSzBNAbAfj-7" value="" style="rounded=1;whiteSpace=wrap;html=1;" vertex="1" parent="mSpAzW-4YonSzBNAbAfj-1">
          <mxGeometry x="370" y="260" width="20" height="30" as="geometry" />
        </mxCell>
        <mxCell id="mSpAzW-4YonSzBNAbAfj-8" value="" style="rounded=1;whiteSpace=wrap;html=1;" vertex="1" parent="mSpAzW-4YonSzBNAbAfj-1">
          <mxGeometry x="390" y="260" width="20" height="30" as="geometry" />
        </mxCell>
        <mxCell id="mSpAzW-4YonSzBNAbAfj-9" value="" style="rounded=1;whiteSpace=wrap;html=1;" vertex="1" parent="mSpAzW-4YonSzBNAbAfj-1">
          <mxGeometry x="410" y="260" width="20" height="30" as="geometry" />
        </mxCell>
        <mxCell id="mSpAzW-4YonSzBNAbAfj-10" value="" style="rounded=1;whiteSpace=wrap;html=1;" vertex="1" parent="mSpAzW-4YonSzBNAbAfj-1">
          <mxGeometry x="430" y="260" width="20" height="30" as="geometry" />
        </mxCell>
        <mxCell id="mSpAzW-4YonSzBNAbAfj-11" value="Manual ID" style="rounded=1;whiteSpace=wrap;html=1;" vertex="1" parent="mSpAzW-4YonSzBNAbAfj-1">
          <mxGeometry x="360" y="340" width="120" height="20" as="geometry" />
        </mxCell>
        <mxCell id="mSpAzW-4YonSzBNAbAfj-12" value="RFID" style="text;html=1;strokeColor=none;fillColor=none;align=center;verticalAlign=middle;whiteSpace=wrap;rounded=0;" vertex="1" parent="mSpAzW-4YonSzBNAbAfj-1">
          <mxGeometry x="400" y="294" width="40" height="20" as="geometry" />
        </mxCell>
        <mxCell id="ucsJpYwpTjTCXfmDS24a-0" value="Home" style="rounded=1;whiteSpace=wrap;html=1;" vertex="1" parent="mSpAzW-4YonSzBNAbAfj-1">
          <mxGeometry x="580" y="60" width="70" height="40" as="geometry" />
        </mxCell>
      </root>
    </mxGraphModel>
  </diagram>
  <diagram id="mMQYvA8FAg-zrCyFkKZk" name="Manual WF">
    <mxGraphModel dx="1205" dy="507" grid="1" gridSize="10" guides="1" tooltips="1" connect="1" arrows="1" fold="1" page="1" pageScale="1" pageWidth="850" pageHeight="1100" math="0" shadow="0">
      <root>
        <mxCell id="mIYmBZVfE9S0osKeKoj2-0" />
        <mxCell id="mIYmBZVfE9S0osKeKoj2-1" parent="mIYmBZVfE9S0osKeKoj2-0" />
        <mxCell id="Gg9mF0OQ_JLWxJjeWRft-0" value="" style="rounded=0;whiteSpace=wrap;html=1;" vertex="1" parent="mIYmBZVfE9S0osKeKoj2-1">
          <mxGeometry x="170" y="40" width="500" height="420" as="geometry" />
        </mxCell>
        <mxCell id="Gg9mF0OQ_JLWxJjeWRft-1" value="Wakerspace Logo" style="ellipse;whiteSpace=wrap;html=1;" vertex="1" parent="mIYmBZVfE9S0osKeKoj2-1">
          <mxGeometry x="360" y="70" width="120" height="80" as="geometry" />
        </mxCell>
        <mxCell id="Gg9mF0OQ_JLWxJjeWRft-2" value="" style="rounded=0;whiteSpace=wrap;html=1;" vertex="1" parent="mIYmBZVfE9S0osKeKoj2-1">
          <mxGeometry x="330" y="200" width="180" height="140" as="geometry" />
        </mxCell>
        <mxCell id="Gg9mF0OQ_JLWxJjeWRft-3" value="" style="rounded=0;whiteSpace=wrap;html=1;" vertex="1" parent="mIYmBZVfE9S0osKeKoj2-1">
          <mxGeometry x="360" y="250" width="120" height="70" as="geometry" />
        </mxCell>
        <mxCell id="Gg9mF0OQ_JLWxJjeWRft-4" value="" style="rounded=1;whiteSpace=wrap;html=1;" vertex="1" parent="mIYmBZVfE9S0osKeKoj2-1">
          <mxGeometry x="450" y="260" width="20" height="30" as="geometry" />
        </mxCell>
        <mxCell id="Gg9mF0OQ_JLWxJjeWRft-5" value="" style="rounded=1;whiteSpace=wrap;html=1;" vertex="1" parent="mIYmBZVfE9S0osKeKoj2-1">
          <mxGeometry x="370" y="260" width="20" height="30" as="geometry" />
        </mxCell>
        <mxCell id="Gg9mF0OQ_JLWxJjeWRft-6" value="" style="rounded=1;whiteSpace=wrap;html=1;" vertex="1" parent="mIYmBZVfE9S0osKeKoj2-1">
          <mxGeometry x="390" y="260" width="20" height="30" as="geometry" />
        </mxCell>
        <mxCell id="Gg9mF0OQ_JLWxJjeWRft-7" value="" style="rounded=1;whiteSpace=wrap;html=1;" vertex="1" parent="mIYmBZVfE9S0osKeKoj2-1">
          <mxGeometry x="410" y="260" width="20" height="30" as="geometry" />
        </mxCell>
        <mxCell id="Gg9mF0OQ_JLWxJjeWRft-8" value="" style="rounded=1;whiteSpace=wrap;html=1;" vertex="1" parent="mIYmBZVfE9S0osKeKoj2-1">
          <mxGeometry x="430" y="260" width="20" height="30" as="geometry" />
        </mxCell>
        <mxCell id="Gg9mF0OQ_JLWxJjeWRft-10" value="WFU ID" style="text;html=1;strokeColor=none;fillColor=none;align=center;verticalAlign=middle;whiteSpace=wrap;rounded=0;" vertex="1" parent="mIYmBZVfE9S0osKeKoj2-1">
          <mxGeometry x="380" y="294" width="80" height="20" as="geometry" />
        </mxCell>
        <mxCell id="Gg9mF0OQ_JLWxJjeWRft-11" value="Home" style="rounded=1;whiteSpace=wrap;html=1;" vertex="1" parent="mIYmBZVfE9S0osKeKoj2-1">
          <mxGeometry x="580" y="60" width="70" height="40" as="geometry" />
        </mxCell>
      </root>
    </mxGraphModel>
  </diagram>
  <diagram id="e_PAQVV_Mlc1GQzPeVqC" name="New-Maker WF">
    <mxGraphModel dx="1205" dy="507" grid="1" gridSize="10" guides="1" tooltips="1" connect="1" arrows="1" fold="1" page="1" pageScale="1" pageWidth="850" pageHeight="1100" math="0" shadow="0">
      <root>
        <mxCell id="SW_vszILHob1dfd06ZcH-0" />
        <mxCell id="SW_vszILHob1dfd06ZcH-1" parent="SW_vszILHob1dfd06ZcH-0" />
        <mxCell id="fX9I8pY-dA4u9qTACTEr-0" value="" style="rounded=0;whiteSpace=wrap;html=1;" vertex="1" parent="SW_vszILHob1dfd06ZcH-1">
          <mxGeometry x="170" y="40" width="500" height="430" as="geometry" />
        </mxCell>
        <mxCell id="fX9I8pY-dA4u9qTACTEr-1" value="Wakerspace Logo" style="ellipse;whiteSpace=wrap;html=1;" vertex="1" parent="SW_vszILHob1dfd06ZcH-1">
          <mxGeometry x="360" y="70" width="120" height="80" as="geometry" />
        </mxCell>
        <mxCell id="fX9I8pY-dA4u9qTACTEr-11" value="Home" style="rounded=1;whiteSpace=wrap;html=1;" vertex="1" parent="SW_vszILHob1dfd06ZcH-1">
          <mxGeometry x="580" y="60" width="70" height="40" as="geometry" />
        </mxCell>
        <mxCell id="fX9I8pY-dA4u9qTACTEr-12" value="" style="rounded=1;whiteSpace=wrap;html=1;" vertex="1" parent="SW_vszILHob1dfd06ZcH-1">
          <mxGeometry x="255" y="180" width="330" height="200" as="geometry" />
        </mxCell>
        <mxCell id="fX9I8pY-dA4u9qTACTEr-23" value="" style="group" vertex="1" connectable="0" parent="SW_vszILHob1dfd06ZcH-1">
          <mxGeometry x="415" y="210" width="120" height="140" as="geometry" />
        </mxCell>
        <mxCell id="fX9I8pY-dA4u9qTACTEr-13" value="First Last" style="rounded=0;whiteSpace=wrap;html=1;" vertex="1" parent="fX9I8pY-dA4u9qTACTEr-23">
          <mxGeometry width="120" height="20" as="geometry" />
        </mxCell>
        <mxCell id="fX9I8pY-dA4u9qTACTEr-14" value="" style="rounded=0;whiteSpace=wrap;html=1;" vertex="1" parent="fX9I8pY-dA4u9qTACTEr-23">
          <mxGeometry y="120" width="120" height="20" as="geometry" />
        </mxCell>
        <mxCell id="fX9I8pY-dA4u9qTACTEr-15" value="Student/faculty/staff" style="rounded=0;whiteSpace=wrap;html=1;" vertex="1" parent="fX9I8pY-dA4u9qTACTEr-23">
          <mxGeometry y="30" width="120" height="20" as="geometry" />
        </mxCell>
        <mxCell id="fX9I8pY-dA4u9qTACTEr-16" value="F/So/J/Se/NA" style="rounded=0;whiteSpace=wrap;html=1;" vertex="1" parent="fX9I8pY-dA4u9qTACTEr-23">
          <mxGeometry y="60" width="120" height="20" as="geometry" />
        </mxCell>
        <mxCell id="fX9I8pY-dA4u9qTACTEr-17" value="" style="rounded=0;whiteSpace=wrap;html=1;" vertex="1" parent="fX9I8pY-dA4u9qTACTEr-23">
          <mxGeometry y="90" width="120" height="20" as="geometry" />
        </mxCell>
        <mxCell id="fX9I8pY-dA4u9qTACTEr-24" value="" style="group" vertex="1" connectable="0" parent="SW_vszILHob1dfd06ZcH-1">
          <mxGeometry x="295" y="210" width="80" height="140" as="geometry" />
        </mxCell>
        <mxCell id="fX9I8pY-dA4u9qTACTEr-18" value="Name" style="text;html=1;strokeColor=none;fillColor=none;align=center;verticalAlign=middle;whiteSpace=wrap;rounded=0;" vertex="1" parent="fX9I8pY-dA4u9qTACTEr-24">
          <mxGeometry width="70" height="20" as="geometry" />
        </mxCell>
        <mxCell id="fX9I8pY-dA4u9qTACTEr-19" value="Classification" style="text;html=1;strokeColor=none;fillColor=none;align=center;verticalAlign=middle;whiteSpace=wrap;rounded=0;" vertex="1" parent="fX9I8pY-dA4u9qTACTEr-24">
          <mxGeometry y="30" width="80" height="20" as="geometry" />
        </mxCell>
        <mxCell id="fX9I8pY-dA4u9qTACTEr-20" value="Year" style="text;html=1;strokeColor=none;fillColor=none;align=center;verticalAlign=middle;whiteSpace=wrap;rounded=0;" vertex="1" parent="fX9I8pY-dA4u9qTACTEr-24">
          <mxGeometry y="60" width="70" height="20" as="geometry" />
        </mxCell>
        <mxCell id="fX9I8pY-dA4u9qTACTEr-21" value="..." style="text;html=1;strokeColor=none;fillColor=none;align=center;verticalAlign=middle;whiteSpace=wrap;rounded=0;" vertex="1" parent="fX9I8pY-dA4u9qTACTEr-24">
          <mxGeometry y="90" width="70" height="20" as="geometry" />
        </mxCell>
        <mxCell id="fX9I8pY-dA4u9qTACTEr-22" value="..." style="text;html=1;strokeColor=none;fillColor=none;align=center;verticalAlign=middle;whiteSpace=wrap;rounded=0;" vertex="1" parent="fX9I8pY-dA4u9qTACTEr-24">
          <mxGeometry y="120" width="70" height="20" as="geometry" />
        </mxCell>
        <mxCell id="fX9I8pY-dA4u9qTACTEr-26" value="Sign WFU agreement form" style="ellipse;shape=cloud;whiteSpace=wrap;html=1;" vertex="1" parent="SW_vszILHob1dfd06ZcH-1">
          <mxGeometry x="680" y="235" width="100" height="90" as="geometry" />
        </mxCell>
      </root>
    </mxGraphModel>
  </diagram>
  <diagram id="IllcKWyg4BGBWtw-ixOH" name="Maker WF">
    <mxGraphModel dx="1205" dy="507" grid="1" gridSize="10" guides="1" tooltips="1" connect="1" arrows="1" fold="1" page="1" pageScale="1" pageWidth="850" pageHeight="1100" math="0" shadow="0">
      <root>
        <mxCell id="yIouDBU12scN6Fe7IENt-0" />
        <mxCell id="yIouDBU12scN6Fe7IENt-1" parent="yIouDBU12scN6Fe7IENt-0" />
        <mxCell id="TK-oXPAmxt1Zzi30Gg__-0" value="" style="rounded=0;whiteSpace=wrap;html=1;" vertex="1" parent="yIouDBU12scN6Fe7IENt-1">
          <mxGeometry x="170" y="40" width="500" height="470" as="geometry" />
        </mxCell>
        <mxCell id="TK-oXPAmxt1Zzi30Gg__-1" value="Wakerspace Logo" style="ellipse;whiteSpace=wrap;html=1;" vertex="1" parent="yIouDBU12scN6Fe7IENt-1">
          <mxGeometry x="360" y="70" width="120" height="80" as="geometry" />
        </mxCell>
        <mxCell id="TK-oXPAmxt1Zzi30Gg__-2" value="Home" style="rounded=1;whiteSpace=wrap;html=1;" vertex="1" parent="yIouDBU12scN6Fe7IENt-1">
          <mxGeometry x="580" y="60" width="70" height="40" as="geometry" />
        </mxCell>
        <mxCell id="6ttbf-vcnAkncWNeD8AO-0" value="" style="rounded=0;whiteSpace=wrap;html=1;" vertex="1" parent="yIouDBU12scN6Fe7IENt-1">
          <mxGeometry x="335" y="190" width="180" height="200" as="geometry" />
        </mxCell>
        <mxCell id="6ttbf-vcnAkncWNeD8AO-1" value="" style="rounded=1;whiteSpace=wrap;html=1;" vertex="1" parent="yIouDBU12scN6Fe7IENt-1">
          <mxGeometry x="360.25" y="210" width="130" height="90" as="geometry" />
        </mxCell>
        <mxCell id="6ttbf-vcnAkncWNeD8AO-2" value="John Doe" style="text;html=1;strokeColor=none;fillColor=none;align=center;verticalAlign=middle;whiteSpace=wrap;rounded=0;" vertex="1" parent="yIouDBU12scN6Fe7IENt-1">
          <mxGeometry x="387.75" y="220" width="75" height="20" as="geometry" />
        </mxCell>
        <mxCell id="6ttbf-vcnAkncWNeD8AO-3" value="WakerMaker/Staff" style="text;html=1;strokeColor=none;fillColor=none;align=center;verticalAlign=middle;whiteSpace=wrap;rounded=0;" vertex="1" parent="yIouDBU12scN6Fe7IENt-1">
          <mxGeometry x="372" y="245" width="106.5" height="20" as="geometry" />
        </mxCell>
        <mxCell id="6ttbf-vcnAkncWNeD8AO-4" value="" style="ellipse;whiteSpace=wrap;html=1;aspect=fixed;fillColor=#1EFF05;" vertex="1" parent="yIouDBU12scN6Fe7IENt-1">
          <mxGeometry x="347.75" y="330" width="40" height="40" as="geometry" />
        </mxCell>
        <mxCell id="6ttbf-vcnAkncWNeD8AO-6" value="" style="ellipse;whiteSpace=wrap;html=1;aspect=fixed;fillColor=#FFEE59;" vertex="1" parent="yIouDBU12scN6Fe7IENt-1">
          <mxGeometry x="387.75" y="330" width="40" height="40" as="geometry" />
        </mxCell>
        <mxCell id="6ttbf-vcnAkncWNeD8AO-7" value="" style="ellipse;whiteSpace=wrap;html=1;aspect=fixed;fillColor=#FF5252;" vertex="1" parent="yIouDBU12scN6Fe7IENt-1">
          <mxGeometry x="427.75" y="330" width="40" height="40" as="geometry" />
        </mxCell>
        <mxCell id="6ttbf-vcnAkncWNeD8AO-8" value="" style="ellipse;whiteSpace=wrap;html=1;aspect=fixed;fillColor=#0077ED;" vertex="1" parent="yIouDBU12scN6Fe7IENt-1">
          <mxGeometry x="467.75" y="330" width="40" height="40" as="geometry" />
        </mxCell>
      </root>
    </mxGraphModel>
  </diagram>
</mxfile>
